<?xml-stylesheet type="text/css" href="stuttgart21.css" ?>
<svg xmlns="http://www.w3.org/2000/svg" xmlns:xlink="http://www.w3.org/1999/xlink" data-auto-start="false" data-zoom-max-scale="100" viewBox="2661352 1746182 66617 37472">
<defs>
    <g id="regiounit" class="unit">
        <path
            class="bumper"
            d="M 100,13 H 102 V 12 H 105 V 17 H 102 V 16 H 99 L 100,13 M 100,37 H 102 V 38 H 105 V 33 H 102 V 34 H 99 L 100,37" />
        <path
            class="trafficred"
            d="M 65,0 C 65,0 72,1 74,1  76,1 89,4 89,5  89,6 100,5 100,12  100,19 99,13 99,25  99,37 100,31 100,38  100,45 89,44 89,45  89,46 76,49 74,49  72,49 65,50 65,50 Z" />
        <path
            class="windowgrey"
            d="M 65,15 C 65,11 72,6 75,6  80,6 98,8 98,14  98,19 98,25 98,25  98,25 98,31 98,36  98,42 80,44 75,44  72,44 65,39 65,35 Z" />
        <path
            class="black-windscreen"
            d="M 98,25 C 98,25 98,22 98,18  98,14 88,10 88,10  87,10 80,12 80,13  80,14 81,25 81,25  81,25 80,36 80,37  80,38 87,40 88,40  88,40 98,36 98,32  98,28 98,25 98,25" />
        <path
            class="lamp"
            d="M 82,25 83,23 86,22 85,25 86,28 83,27 82,25" />
    </g>
    <g id="icunit" class="unit">
        <path
            class="bumper"
            d="M 100,13 H 102 V 12 H 105 V 17 H 102 V 16 H 99 L 100,13 M 100,37 H 102 V 38 H 105 V 33 H 102 V 34 H 99 L 100,37" />
        <path
            class="lightgrey"
            d="M 63,0 C 63,0 72,1 74,1  76,1 89,4 89,5  89,6 100,5 100,12  100,19 99,13 99,25  99,37 100,31 100,38  100,45 89,44 89,45  89,46 76,49 74,49  72,49 63,50 63,50 Z"
            />
        <path
            class="windowgrey"
            d="M 63,0 L 63,0 C 65,0 98,8 98,14  98,19 98,25 98,25  98,25 98,31 98,36  98,42 65,50 63,50 L 63,50" />
        <path
            class="black-windscreen"
            d="M 98,25 C 98,25 98,22 98,18  98,14 88,10 88,10  87,10 80,12 80,13  80,14 81,25 81,25  81,25 80,36 80,37  80,38 87,40 88,40  88,40 98,36 98,32  98,28 98,25 98,25" />
        <path
            class="lamp"
            d="M 82,25 83,23 86,22 85,25 86,28 83,27 82,25" />
    </g>
    <g id="iceunit" class="unit">
        <path
            class="icebody"
            d="M 150,0 C 250,0 426,35 426,100 426,165 250,200 150,200 Z" />
        <path
            class="lamp"
            d="M 410,86 387,76 384,60 407,72 Z" />
        <path
            class="lamp"
            d="M 410,114 387,124 384,140 407,128 Z" />
        <path
            class="windscreen"
            d="M 290,37 C 301,37 360,55 360,100 360,145 301,163 290,163 291,163 296,120 296,100 296,80 291,37 290,37 Z" />
        <path
            class="cap"
            d="M 290,163 C 291,163 296,120 296,100 296,80 291,37 290,37 290,36 256,31 246,31 206,31 214,65 214,100 214,135 206,169 246,169 256,169 290,164 290,163 Z" />
    </g>
    <marker id="ice-start" viewBox="150 0 426,200" refX="150" refY="100" markerHeight="1" orient="auto-start-reverse">
        <!--<path d="M 0,426 C 0,78 55,0 100,0 C 145,0 200,78 200,426 Z" fill="white" />
        <path d="M 86,16 L 76,39 L 60,42 L 72,19 Z" fill="grey" />
        <path d="M 114,16 L 124,39 L 140,42 L 128,19 Z" fill="grey" />
        <path d="M 37,136 C 37,125 55,66 100,66 C 145,66 163,125 163,136 C 163,135 120,130 100,130 C 80,130 37,135 37,136 Z" fill="lightgrey" />
        <path d="M 163,136 C 163,135 120,130 100,130 C 80,130 37,135 37,136 C 36,136 31,170 31,180 C 31,220 65,212 100,212 C 135,212 169,220 169,180 C 169,170 164,136 163,136 Z" fill="grey" />
        -->
        <g class="train-start">
            <use href="#iceunit" />
        </g>
    </marker>
    <marker id="ice-end" viewBox="150 0 426,200" refX="150" refY="100" markerHeight="1" orient="auto-start-reverse">
        <g class="train-end">
            <use href="#iceunit" />
        </g>    
    </marker>
    <marker id="ic-start" viewBox="63 0 105,50" refX="63" refY="25" markerHeight="1" orient="auto-start-reverse">
        <g class="train-start">
            <use href="#icunit" />
        </g>
    </marker>
    <marker id="ic-end" viewBox="63 0 105,50" refX="63" refY="25" markerHeight="1" orient="auto-start-reverse">
        <g class="train-end">
            <use href="#icunit"/>
        </g>
    </marker>
    <marker id="regio-start" viewBox="65 0 40,50" refX="65" refY="25" markerHeight="1" orient="auto-start-reverse">
        <g class="train-start">
            <use href="#regiounit" />
        </g>
    </marker>
    <marker id="regio-end" viewBox="65 0 40,50" refX="65" refY="25" markerHeight="1" orient="auto-start-reverse">
        <g class="train-end">
            <use href="#regiounit"/>
        </g>
    </marker>
    <marker id="panto" viewBox="0 0 200,200" refX="130" refY="100" markerHeight="1" orient="auto-start-reverse">
        <path
            d="M 200,100 L 200,90 L 90,70 M 200,100 L 200,110 L 90,130 M 113,30 L 110,35 L 110,165 L 113,170 M 83,30 80,35 L 80,165 L 83,170" class="panto" />
        <path 
            d="M 130,100 L 200,100" class="panto" style="stroke-width:20px" />
    </marker>
</defs>
<rect x="2661352" y="1746182" width="100%" height="100%" fill="#f2f2f2"/>
<g id="zoomable">
    <image href="res/high/map_10000_circ_small_bw.png" x="2680924" y="1751182" width="27472" height="27472" preserveAspectRatio="none" />
    <image href="res/high/stgt_750m_small.png" x="2686193" y="1758737" width="9007" height="9097" style="opacity:0.6" preserveAspectRatio="none" />

    <g id="elements">
        <g id="risk"  style="dominant-baseline: middle;" transform="scale(5)">
        <g data-from="30 29 noanim">
            <g data-from="30 1 noanim" data-to="30 35 noanim">
                <text x="250" y="-30" data-to="30 40 keepzoom" style="text-anchor: middle;font-size:20px;">Stuttgart 21-Tunnel sind die »gefährlichsten Tunnelneubauten weltweit«</text>
                <text x="250" y="0" style="text-anchor: middle;font-size:12px;">Kombiniertes Risiko im Brandfall: Freier Tunnelquerschnitt, Gefälle, Rettungswegbreite, Abstand der Querschläge, zu evakuierende Personenzahl</text>


                <text x="180" y="50" data-from="30 1">Perthustunnel (FR/ES)</text>
                <path d="M 200,50 h 7" data-line="risk" data-from="30 1" />

                <text x="180" y="75" data-from="30 1">Lötschberg-Basistunnel (CH)</text>
                <path d="M 200,75 h 15" data-line="risk" data-from="30 1" />

                <text x="180" y="100" data-from="30 1">Katzenbergtunnel (DE)</text>
                <path d="M 200,100 h 17" data-line="risk" data-from="30 1" />

                <text x="180" y="125" data-from="30 1">Wienerwaldtunnel (AT)</text>
                <path d="M 200,125 h 22" data-line="risk" data-from="30 1" />

                <text x="180" y="150" data-from="30 1">Brenner-Basistunnel (AT/IT)</text>
                <path d="M 200,150 h 28" data-line="risk" data-from="30 1" />

                <text x="180" y="175" data-from="30 1">NBS Wendlingen-Ulm (DE)</text>
                <path d="M 200,175 h 47" data-line="risk" data-from="30 1" />

                <text x="180" y="200" data-from="30 1" style="font-weight: bold">Stuttgart 21 (DE)</text>
                <path d="M 200,200 h 143" data-line="risk" data-from="30 1" />

                <text x="180" y="225" data-from="30 10 keepzoom">Schulwaldtunnel, SFS KRM (DE)</text>
                <path d="M 200,225 h 144" data-line="risk" data-from="30 10 keepzoom" />

                <text x="180" y="250" data-from="30 14 keepzoom">Grand Paris Express (FR)</text>
                <path d="M 200,250 h 212" data-line="risk" data-from="30 14 keepzoom" />

                <text x="180" y="275" data-from="30 18 keepzoom">Crossrail London (UK)</text>
                <path d="M 200,275 h 305" data-line="risk" data-from="30 18 keepzoom" />

                <g class="dummy" data-from="30 45 noanim-keepzoom"></g>
            </g>

            <text x="180" y="300" data-from="30 22 keepzoom" data-to="30 35 nozoom">Gotthard-Scheiteltunnel (CH)</text>
            <path d="M 200,300 h 2078" data-line="risk" data-from="30 22 keepzoom" data-to="30 35 noanim-nozoom" data-speed="200" />
        </g>
        </g>
        <g id="gravity" transform="scale(5) translate(2450655 1602987)">

            <path data-line="TS_TLU" class="10" data-stops="+0 gTS +0 gTLU" data-weight="10" data-from="20 1 noanim" data-to="20 20 noanim" data-beck-style="false" />
            <path data-line="TS_TLU" class="13" data-stops="+0 gTS +0 gTLU" data-weight="7" data-from="20 20 noanim" data-to="20 140 noanim" data-beck-style="false" />

            <path data-line="TS_TWN" class="12" data-stops="+0 gTS +0 gTWN" data-weight="11" data-from="20 1 noanim" data-to="20 20 noanim" data-beck-style="false" />
            <path data-line="TS_TWN" class="12" data-stops="+0 gTS +0 gTWN" data-weight="10" data-from="20 20 noanim" data-to="20 140 noanim" data-beck-style="false" />

            <!--<path data-line="TS_TE" class="8" data-stops="+0 gTS +0 gTE" data-weight="11" data-from="20 1 noanim" data-to="20 20 noanim" data-beck-style="false" />
            <path data-line="TS_TE" class="9" data-stops="+0 gTS +0 gTE" data-weight="6" data-from="20 20 noanim" data-to="20 140 noanim" data-beck-style="false" />-->

            <path data-line="TS_TFL" class="4" data-stops="+0 gTS +0 gTFL" data-weight="27" data-from="20 1 noanim" data-to="20 20 noanim" data-beck-style="false" />
            <path data-line="TS_TFL" class="12" data-stops="+0 gTS +0 gTFL" data-weight="6" data-from="20 20 noanim" data-to="20 140 noanim" data-beck-style="false" />

            <path data-line="TS_TBO" class="7" data-stops="+0 gTS +0 gTBO" data-weight="21" data-from="20 1 noanim" data-to="20 20 noanim" data-beck-style="false" />
            <path data-line="TS_TBO" class="12" data-stops="+0 gTS +0 gTBO" data-weight="15" data-from="20 20 noanim" data-to="20 140 noanim" data-beck-style="false" />

            <!--<path data-line="TS_TKT" class="2" data-stops="+0 gTS +0 gTKT" data-weight="43" data-from="20 1 noanim" data-to="20 20 noanim" data-beck-style="false" />
            <path data-line="TS_TKT" class="2" data-stops="+0 gTS +0 gTKT" data-weight="45" data-from="20 20 noanim" data-to="20 140 noanim" data-beck-style="false" />-->

            <path data-line="TS_TNU" class="2" data-stops="+0 gTS +0 gTNU" data-weight="31" data-from="20 1 noanim" data-to="20 20 noanim" data-beck-style="false" />
            <path data-line="TS_TNU" class="4" data-stops="+0 gTS +0 gTNU" data-weight="18" data-from="20 20 noanim" data-to="20 140 noanim" data-beck-style="false" />

            <path data-line="TS_TSC" class="20" data-stops="+0 gTS +0 gTSC" data-weight="3" data-from="20 1 noanim" data-to="20 20 noanim" data-beck-style="false" />
            <path data-line="TS_TSC" class="20" data-stops="+0 gTS +0 gTSC" data-weight="4" data-from="20 20 noanim" data-to="20 140 noanim" data-beck-style="false" />
            
            <!--<path data-line="TS_TGO" class="2" data-stops="+0 gTS +0 gTGO" data-weight="28" data-from="20 1 noanim" data-to="20 20 noanim" data-beck-style="false" />
            <path data-line="TS_TGO" class="3" data-stops="+0 gTS +0 gTGO" data-weight="26" data-from="20 20 noanim" data-to="20 140 noanim" data-beck-style="false" />-->

            <path data-line="TS_TSFE" class="12" data-stops="+0 gTS +0 gTSFE" data-weight="5" data-from="20 1 noanim" data-to="20 20 noanim" data-beck-style="false" />
            <path data-line="TS_TSFE" class="12" data-stops="+0 gTS +0 gTSFE" data-weight="7" data-from="20 20 noanim" data-to="20 140 noanim" data-beck-style="false" />

            <!--<path data-line="TS_TSV" class="12" data-stops="+0 gTS +0 gTSV" data-weight="14" data-from="20 1 noanim" data-to="20 20 noanim" data-beck-style="false" />
            <path data-line="TS_TSV" class="18" data-stops="+0 gTS +0 gTSV" data-weight="14" data-from="20 20 noanim" data-to="20 140 noanim" data-beck-style="false" />-->
            
            <path data-line="TS_TP" class="10" data-stops="+0 gTS +0 gTP" data-weight="17" data-from="20 1 noanim" data-to="20 20 noanim" data-beck-style="false" />
            <path data-line="TS_TP" class="9" data-stops="+0 gTS +0 gTP" data-weight="15" data-from="20 20 noanim" data-to="20 140 noanim" data-beck-style="false" />

            <path data-line="TS_TLE" class="4" data-stops="+0 gTS +0 gTLE" data-weight="25" data-from="20 1 noanim" data-to="20 20 noanim" data-beck-style="false" />
            <path data-line="TS_TLE" class="6" data-stops="+0 gTS +0 gTLE" data-weight="27" data-from="20 20 noanim" data-to="20 140 noanim" data-beck-style="false" />

            <!--<path data-line="TS_TV" class="3" data-stops="+0 gTS +0 gTV" data-weight="16" data-from="20 1 noanim" data-to="20 20 noanim" data-beck-style="false" />
            <path data-line="TS_TV" class="5" data-stops="+0 gTS +0 gTV" data-weight="11" data-from="20 20 noanim" data-to="20 140 noanim" data-beck-style="false" />-->

            <path data-line="TBO_TFL" class="4" data-stops="+0 gTBO +0 gTFL" data-weight="22" data-from="20 1 noanim" data-to="20 20 noanim" data-beck-style="false" />
            <path data-line="TBO_TFL" class="8" data-stops="+0 gTBO +0 gTFL" data-weight="7" data-from="20 20 noanim" data-to="20 140 noanim" data-beck-style="false" />

            <path data-line="TP_TSC" class="7" data-stops="+0 gTP +0 gTSC" data-weight="14" data-from="20 1 noanim" data-to="20 20 noanim" data-beck-style="false" />
            <path data-line="TP_TSC" class="6" data-stops="+0 gTP +0 gTSC" data-weight="23" data-from="20 20 noanim" data-to="20 140 noanim" data-beck-style="false" />

            
            <!--<path data-line="TSFE_TSC" class="18" data-stops="+0 gTSFE +0 gTSC" data-weight="13" data-from="20 1 noanim" data-to="20 20 noanim" data-beck-style="false" />
            <path data-line="TSFE_TSC" class="6" data-stops="+0 gTSFE +0 gTSC" data-weight="9" data-from="20 20 noanim" data-to="20 140 noanim" data-beck-style="false" />-->
            
            <path data-line="TBO_TLE" class="2" data-stops="+0 gTBO +0 gTLE" data-weight="28" data-from="20 1 noanim" data-to="20 20 noanim" data-beck-style="false" />
            <path data-line="TBO_TLE" class="2" data-stops="+0 gTBO +0 gTLE" data-weight="29" data-from="20 20 noanim" data-to="20 140 noanim" data-beck-style="false" />

            <!--<path data-line="TBO_TNU" class="4" data-stops="+0 gTBO +0 gTNU" data-weight="60" data-from="20 1 noanim" data-to="20 20 noanim" data-beck-style="false" />
            <path data-line="TBO_TNU" class="7" data-stops="+0 gTBO +0 gTNU" data-weight="31" data-from="20 20 noanim" data-to="20 140 noanim" data-beck-style="false" />-->

            <path data-line="TNU_TP" class="2" data-stops="+0 gTNU +0 gTP" data-weight="15" data-from="20 1 noanim" data-to="20 20 noanim" data-beck-style="false" />
            <path data-line="TNU_TP" class="2" data-stops="+0 gTNU +0 gTP" data-weight="12" data-from="20 20 noanim" data-to="20 140 noanim" data-beck-style="false" />

            <!--<path data-line="TLU_TSFE" class="8" data-stops="+0 gTLU +0 gTSFE" data-weight="10" data-from="20 1 noanim" data-to="20 20 noanim" data-beck-style="false" />
            <path data-line="TLU_TSFE" class="8" data-stops="+0 gTLU +0 gTSFE" data-weight="9" data-from="20 20 noanim" data-to="20 140 noanim" data-beck-style="false" />-->



                <rect data-station="gTLU" x="269063" y="176062" data-dir="nw" />
        <rect data-station="gTWN" x="269228" y="176207" data-dir="nw" />
        <rect data-station="gTE" x="269229" y="176396" data-dir="nw" />
        <rect data-station="gTFL" x="269058" y="176500" data-dir="nw" />
        <rect data-station="gTT" x="268880" y="176876" data-dir="nw" />
        <rect data-station="gTBO" x="268768" y="176532" data-dir="nw" />
        <rect data-station="gTKT" x="269431" y="176600" data-dir="nw" />
        <rect data-station="gTNU" x="269287" y="176635" data-dir="nw" />
        <rect data-station="gTSC" x="269110" y="176261" data-dir="nw" />
        <rect data-station="gTGO" x="269728" y="176480" data-dir="nw" />
        <rect data-station="gTSFE" x="269037" y="176234" data-dir="nw" />
        <rect data-station="gTS" x="269058" y="176298" data-dir="nw" />
        <rect data-station="gTSV" x="268961" y="176423" data-dir="nw" />
        <rect data-station="gTP" x="269384" y="176453" data-dir="nw" />
        <rect data-station="gTLE" x="268806" y="176266" data-dir="nw" />
        <rect data-station="gTV" x="268740" y="175947" data-dir="nw" />




            <text data-station="gTLU" >Ludwigsburg</text>
            <text data-station="gTWN" >Waiblingen</text>
            <text data-station="gTE"  >Esslingen</text>
            <text data-station="gTFL" >Flughafen/Messe</text>
            <text data-station="gTT"  >Tübingen</text>
            <text data-station="gTBO" >Böblingen</text>
            <text data-station="gTKT" >Kirchheim(Teck)</text>
            <text data-station="gTNU" >Nürtingen</text>
            <text data-station="gTSC" >Bad Cannstatt</text>
            <text data-station="gTGO" >Göppingen</text>
            <text data-station="gTSFE">Feuerbach</text>
            <text data-station="gTSV" >Vaihingen</text>
            <text data-station="gTP"  >Plochingen</text>
            <text data-station="gTLE" >Leonberg</text>
            <text data-station="gTV"  >Vaihingen(Enz)</text>
            <text data-station="gTS"  >Stuttgart</text>




        </g>
        <g id="geo_intro">
        </g>
        <g id="geo_intro_labels">
            <rect x="2690219" y="1762363" class="helper dummy" width="1000" height="1000" data-from="0 5" data-to="1 100 keepzoom" />
            <text class="dummy helper" data-from="0 10 keepzoom" data-to="0 10 keepzoom" ></text>

            <text x="2690655" y="1762987" data-from="0 1" data-to="1 100 keepzoom" class="shadow">Stuttgart Hbf</text>
            <text x="2690439" y="1762363" data-from="1 2 keepzoom" data-to="1 100 keepzoom" class="shadow">Feuerbach</text>
            <text x="2690971" y="1762567" data-from="1 7 keepzoom" data-to="1 100 keepzoom" class="shadow">Bad Cannstatt</text>
            <text x="2691779" y="1763090" data-from="1 10 keepzoom" data-to="1 100 keepzoom" class="shadow">Untertürkheim</text>
            <text x="2690916" y="1765002" data-from="1 17 keepzoom" data-to="1 100 keepzoom" class="shadow">Flughafen/Messe</text>
            <text x="2693262" y="1765473" data-from="1 23 keepzoom" data-to="1 100 keepzoom" class="shadow">Wendlingen</text>
            <text x="2702068" y="1771093" class="shadow" style="font-size:80px">Ulm</text>
        </g>

        <!--<path data-line="test" data-from="1 10 nozoom" />-->

        <g id="gleisplan" transform="translate(2680600, 1763000) scale(1) rotate(0)">
            <path data-line="sn" data-stops="+0 TSn4            +0 TS8a +0 TS8b +0 TS8c             +0 TSs4" data-from="1 100" />
            <path data-line="sn" data-stops="+0 TSn4 +0 TSnh2   +0 TS7a +0 TS7b +0 TS7c +0 TSsh2    +0 TSs4" data-from="1 100" />
            <path data-line="sn" data-stops="+0 TSn4            +0 TS6a +0 TS6b +0 TS6c             +0 TSs4" />
            <path data-line="sn" data-stops="+0 TSn4            +0 TS5a +0 TS5b +0 TS5c             +0 TSs4" />

            

            <path data-line="sn" data-stops="+0 TSn3 +0 TSnh2   +0 TS8a +0 TS8b +0 TS8c +0 TSsh2    +0 TSs3" />
            <path data-line="sn" data-stops="+0 TSn3 +0 TSnh2   +0 TS7a +0 TS7b +0 TS7c +0 TSsh2    +0 TSs3" />
            <path data-line="sn" data-stops="+0 TSn3            +0 TS6a +0 TS6b +0 TS6c             +0 TSs3" />
            <path data-line="sn" data-stops="+0 TSn3            +0 TS5a +0 TS5b +0 TS5c             +0 TSs3" />


            <path data-line="ns" data-stops="+0 TSn2            +0 TS4a +0 TS4b +0 TS4c             +0 TSs2" />
            <path data-line="ns" data-stops="+0 TSn2            +0 TS3a +0 TS3b +0 TS3c             +0 TSs2" />
            <path data-line="ns" data-stops="+0 TSn2 +0 TSnh1   +0 TS2a +0 TS2b +0 TS2c +0 TSsh1    +0 TSs2" />
            <path data-line="ns" data-stops="+0 TSn2 +0 TSnh1   +0 TS1a +0 TS1b +0 TS1c +0 TSsh1    +0 TSs2" />

           

            <path data-line="ns" data-stops="+0 TSn1            +0 TS4a +0 TS4b +0 TS4c             +0 TSs1" />
            <path data-line="ns" data-stops="+0 TSn1            +0 TS3a +0 TS3b +0 TS3c             +0 TSs1" />
            <path data-line="ns" data-stops="+0 TSn1 +0 TSnh1   +0 TS2a +0 TS2b +0 TS2c +0 TSsh1    +0 TSs1" />
            <path data-line="ns" data-stops="+0 TSn1            +0 TS1a +0 TS1b +0 TS1c             +0 TSs1" />

            
            
            <rect data-station="TS8a" x="-40" y="-30" />
            <rect data-station="TS8b" x="+00" y="-30" />
            <rect data-station="TS8c" x="+40" y="-30" />

            <rect data-station="TS7a" x="-40" y="-20" />
            <rect data-station="TS7b" x="+00" y="-20" />
            <rect data-station="TS7c" x="+40" y="-20" />

            <rect data-station="TS6a" x="-40" y="-10" />
            <rect data-station="TS6b" x="+00" y="-10" />
            <rect data-station="TS6c" x="+40" y="-10" />

            <rect data-station="TS5a" x="-40" y="0" />
            <rect data-station="TS5b" x="+00" y="0" />
            <rect data-station="TS5c" x="+40" y="0" />

            <rect data-station="TS4a" x="-40" y="10" />
            <rect data-station="TS4b" x="+00" y="10" />
            <rect data-station="TS4c" x="+40" y="10" />

            <rect data-station="TS3a" x="-40" y="20" />
            <rect data-station="TS3b" x="+00" y="20" />
            <rect data-station="TS3c" x="+40" y="20" />

            <rect data-station="TS2a" x="-40" y="30" />
            <rect data-station="TS2b" x="+00" y="30" />
            <rect data-station="TS2c" x="+40" y="30" />

            <rect data-station="TS1a" x="-40" y="40" />
            <rect data-station="TS1b" x="+00" y="40" />
            <rect data-station="TS1c" x="+40" y="40" />

            <rect data-station="TSn4" x="-80" y="-10" />
            <rect data-station="TSn3" x="-80" y="+00" />
            <rect data-station="TSn2" x="-80" y="+10" />
            <rect data-station="TSn1" x="-80" y="+20" />

            <rect data-station="TSs4" x="+80" y="-10" />
            <rect data-station="TSs3" x="+80" y="+00" />
            <rect data-station="TSs2" x="+80" y="+10" />
            <rect data-station="TSs1" x="+80" y="+20" />

            <rect data-station="TSnh2" class="hidden helper" x="-60" y="-15" data-dir="nw" />
            <rect data-station="TSsh2" class="hidden helper" x="60" y="-15" data-dir="ne" />

            <rect data-station="TSnh1" class="hidden helper" x="-60" y="25" data-dir="ne" />
            <rect data-station="TSsh1" class="hidden helper" x="60" y="25" data-dir="nw" />

            <rect data-station="TSBCh1" x="-200" y="-50" data-dir="ne" />
            <rect data-station="TSBCh2" x="-250" y="-250" data-dir="e" />


            <rect data-station="TSBC" x="100" y="-650" data-dir="se" />
            <rect data-station="TSFE" x="-600" y="-350" data-dir="ne" />
            <rect data-station="TSU" x="750" y="-600" data-dir="nw" />
            <rect data-station="TSFL" x="1500" y="1250" data-dir="ne" />
            <rect data-station="TU" x="15500" y="2400" data-dir="sw" />
            <rect data-station="RM" x="-5000" y="-15000" data-dir="n" />
            <rect data-station="TE" x="2100" y="-650" data-dir="n" />
            <rect data-station="TP" x="3500" y="-1200" data-dir="nw" />
            <rect data-station="TL" x="-1800" y="-2000" data-dir="e" />
            <rect data-station="TV" x="-4000" y="-400" data-dir="e" />


            <path data-line="sn" data-stops="TP TE TSU +0 TSs4" />
            <path data-line="sn" data-stops="+0 TSn4 TSBCh1 TSBCh2 TSBC" />

            <path data-line="ns" data-stops="TSBC TSBCh2 TSBCh1 +0 TSn1" />
            <path data-line="ns" data-stops="+0 TSs1 TSU TE TP" />


            <path data-train="ns" class="Regio E2BW" data-length="2" data-stops="TSBC +7+10 TS3c +29+36 TSFL" data-from="1983 1"/>


            <rect class="underthrow" width="30" height="10" x="-170" y="0" transform="rotate(45 -155 5)" />
            <rect class="underthrow" width="30" height="10" x="140" y="0" transform="rotate(-45 155 5)" />

            <path data-line="sn" data-stops="TU TSFL +0 TSs3" />
            <path data-line="sn" data-stops="+0 TSn3 +0 TSFE TV RM" />
            <path data-line="sn" data-stops="+0 TSn3 +0 TSFE TL" />

            <path data-line="ns" data-stops="RM TV +1 TSFE +0 TSn2" />
            <path data-line="ns" data-stops="TL +1 TSFE +0 TSn2" />
            <path data-line="ns" data-stops="+0 TSs2 TSFL TU" />

            <path data-train="sn" class="ICE FV31" data-length="4" data-stops="TSU +10+19 TS6a +25+37 TV" data-from="1983 1"/>

            <path data-train="sn" class="ICE FV6.1" data-length="4" data-stops="TSU -15-4 TS6a +1+37 RM" data-from="1983 1"/>

            <path data-train="sn" class="ICE FV8" data-length="4" data-stops="TU -14+17 TS5a +22+58 RM" data-from="1983 1"/>
            <path data-train="sn" class="ICE FV8" data-length="4" data-stops="TU +46+77 TS5a +82+118 RM" data-from="1983 1"/>

            <path data-train="sn" class="ICE FV1FV27" data-length="4" data-stops="TU +16+47 TS5a +52+88 RM" data-from="1983 1"/>
            <path data-train="sn" class="ICE FV1FV27" data-length="4" data-stops="TU +76+107 TS5a +112+148 RM" data-from="1983 1"/>

            <!-- no TV but RK 122-->
            <path data-train="sn" class="IC FV22" data-length="4" data-stops="TU +51+82 TS6a +85+97 TV" data-from="1983 1"/>

            <path data-train="sn" class="ICE FV41" data-length="4" data-stops="TU +3+34 TS5a +36+49 TV" data-from="1983 1"/>

            <!-- no TU -->
            <path data-train="sn" class="ICE FV47" data-length="4" data-stops="TU +21+52 TS6a +61+97 RM" data-from="1983 1"/>

            <!-- no TV -->
            <path data-train="sn" class="ICE FV40" data-length="4" data-stops="TSFL +92+100 TS5a +102+114 TV" data-from="1983 1"/>

            <path data-train="sn" class="ICE FV45" data-length="4" data-stops="TSFL +49+58 TS7a +65+101 RM" data-from="1983 1"/>

            <!-- no BC -->
            <path data-train="sn" class="IC FV45" data-length="2" data-stops="TSFL +5+13 TS8a +16+20 TSBC" data-from="1983 1"/>
            <path data-train="sn" class="IC FV45" data-length="2" data-stops="TSFL +65+73 TS7a +76+80 TSBC" data-from="1983 1"/>

            <!-- Schorndorf-->
            <path data-train="sn" class="IC FR3" data-length="2" data-stops="TSU +105+113 TS7a +116+130 TV" data-from="1983 1"/>

            <path data-train="sn" class="Regio BWEx9" data-length="2" data-stops="TSU +45+52 TS7a +54+70 TV" data-from="1983 1"/>


            <path data-train="sn" class="Regio E16BWE71.B" data-length="2" data-stops="TP +31+46 TS8b +54+58 TSBC" data-from="1983 1"/>
            <path data-train="sn" class="Regio E16BWE71.B" data-length="2" data-stops="TP +91+106 TS8b +114+118 TSBC" data-from="1983 1"/>

            <path data-train="sn" class="Regio E7BWE71.B" data-length="2" data-stops="TP +1+16 TS8b +25+28 TSBC" data-from="1983 1"/>
            <path data-train="sn" class="Regio E7BWE71.B" data-length="2" data-stops="TP +61+76 TS7b +85+88 TSBC" data-from="1983 1"/>

            <path data-train="sn" class="Regio BWEx5" data-length="2" data-stops="TP +42+59 TS8a +60+64 TSBC" data-from="1983 1"/>
            <path data-train="sn" class="Regio BWEx5" data-length="2" data-stops="TP +102+119 TS7a +125+129 TSBC" data-from="1983 1"/>

            <path data-train="sn" class="Regio E8BW" data-length="2" data-stops="TP +21+35 TS8a +46+54 TL" data-from="1983 1"/>
            <path data-train="sn" class="Regio E8BW" data-length="2" data-stops="TP +81+95 TS8a +106+114 TL" data-from="1983 1"/>

            <path data-train="sn" class="Regio E11BWE12BW" data-length="2" data-stops="TP -9+5 TS6a +16+24 TL" data-from="1983 1"/>
            <path data-train="sn" class="Regio E11BWE12BW" data-length="2" data-stops="TP +51+65 TS6a +76+84 TL" data-from="1983 1"/>

            <path data-train="sn" class="Regio E52BW" data-length="2" data-stops="TSU +20+29 TS7a +31+38 TL" data-from="1983 1"/>
            <path data-train="sn" class="Regio E52BW" data-length="2" data-stops="TSU +80+89 TS7a +91+98 TL" data-from="1983 1"/>

            <path data-train="sn" class="Regio BWEx8" data-length="2" data-stops="TSU +2+9 TS5a +12+19 TL" data-from="1983 1"/>
            <path data-train="sn" class="Regio BWEx8" data-length="2" data-stops="TSU +62+69 TS5a +72+79 TL" data-from="1983 1"/>

            <path data-train="sn" class="Regio E37BW" data-length="2" data-stops="TSFL -6+2 TS7b +20+23 TSBC" data-from="1983 1"/>
            <path data-train="sn" class="Regio E37BW" data-length="2" data-stops="TSFL +54+62 TS8b +80+83 TSBC" data-from="1983 1"/>

            <path data-train="sn" class="Regio E2BW" data-length="2" data-stops="TSFL +24+31 TS7b +50+54 TSBC" data-from="1983 1"/>
            <path data-train="sn" class="Regio E2BW" data-length="2" data-stops="TSFL +84+91 TS7b +110+114 TSBC" data-from="1983 1"/>

            <path data-train="sn" class="Regio E5BW" data-length="2" data-stops="TSFL +47+56 TS5a +58+67 TL" data-from="1983 1"/>
            <path data-train="sn" class="Regio E5BW" data-length="2" data-stops="TSFL +107+116 TS8a +119+127 TL" data-from="1983 1"/>

            <path data-train="sn" class="Regio BWEx9" data-length="2" data-stops="TSU +18+25 TS5a +28+41 TV" data-from="1983 1"/>
            <path data-train="sn" class="Regio BWEx9" data-length="2" data-stops="TSU +78+85 TS5a +88+101 TV" data-from="1983 1"/>
        </g>
    </g>

</g>
    <g id="neigung">
        <rect x="2661352" y="1746182" width="100%" height="100%" fill="#f2f2f2" style="visibility:hidden" data-from="50 1 noanim-nozoom" data-to="50 10 noanim-nozoom"/>
        <path d="M 2661352,1783654 v -18736 l 66617,999.255 L 2727969,1783654 Z" style="fill: #cd1719; stroke: none;visibility:hidden" data-from="50 1 noanim-nozoom" data-to="50 10 noanim-nozoom"/>
    </g>

     <image id="immobilien" href="res/immobilien.jpg" preserveAspectRatio="xMidYMid slice" class="cover" data-from="2 10 keepzoom" data-to="2 20 keepzoom" data-zoom="45 55" />
    <text x="2727600" y="1782900" data-inset="immobilien" data-from="50 10 keepzoom" data-to="50 20 keepzoom" class="shadow caption">Stuttgart Hbf von oben. Traines. CC-BY-SA 4.0.</text>


    <image id="anhydrit" href="res/(2015-12-19)_ANHYDRIT_07_PWA-S.jpg" preserveAspectRatio="xMidYMid slice" class="cover" data-from="40 1 keepzoom" data-to="40 10 keepzoom" data-zoom="55 55" />
    <text x="2727600" y="1782900" data-inset="anhydrit" data-from="40 1 keepzoom" data-to="40 10 keepzoom" class="shadow caption">Teil einer Anhydritrosette. Hans-Joachim Engelhardt. CC-BY-SA 4.0.</text>

    <image id="querneigung" href="res/querneigung.jpg" preserveAspectRatio="xMidYMid slice" class="cover" data-from="50 10 keepzoom" data-to="50 20 keepzoom" data-zoom="45 55" />
    <text x="2727600" y="1782900" data-inset="querneigung" data-from="50 10 keepzoom" data-to="50 20 keepzoom" class="shadow caption">Bahnsteig Stuttgart Hbf. Traines. CC-BY-SA 4.0.</text>


    <text x="2727600" y="1782900" data-inset="stgt" data-from="1 0 keepzoom" data-to="1 100 keepzoom" class="shadow caption">Orthofoto: Geobasisdaten ©LGL, www.lgl-bw.de. DL-DE-BY 2.0. Relief: maps-for-free.com. CC0. Relief/Pfade: © OpenStreetMap Contributors</text>
    <text x="2727600" y="1782900" data-inset="stgt" data-from="30 0 keepzoom" data-to="30 41 keepzoom" class="shadow caption">Quelle: #3, #4</text>

    <script xlink:href="../../dist/network-animator.js" />
    <script xlink:href="auxiliaries.js" />
</svg>