<?xml-stylesheet type="text/css" href="u-bahn-berlin.css" ?>
<svg xmlns="http://www.w3.org/2000/svg" xmlns:xlink="http://www.w3.org/1999/xlink" data-auto-start="false" data-zoom-max-scale="100" viewBox="0 0 19200 10800">
<defs>
    <g id="regiounit" class="unit">
        <path
            class="bumper"
            d="M 100,13 H 102 V 12 H 105 V 17 H 102 V 16 H 99 L 100,13 M 100,37 H 102 V 38 H 105 V 33 H 102 V 34 H 99 L 100,37" />
        <path
            class="trafficred"
            d="M 65,0 C 65,0 72,1 74,1  76,1 89,4 89,5  89,6 100,5 100,12  100,19 99,13 99,25  99,37 100,31 100,38  100,45 89,44 89,45  89,46 76,49 74,49  72,49 65,50 65,50 Z" />
        <path
            class="windowgrey"
            d="M 65,15 C 65,11 72,6 75,6  80,6 98,8 98,14  98,19 98,25 98,25  98,25 98,31 98,36  98,42 80,44 75,44  72,44 65,39 65,35 Z" />
        <path
            class="black-windscreen"
            d="M 98,25 C 98,25 98,22 98,18  98,14 88,10 88,10  87,10 80,12 80,13  80,14 81,25 81,25  81,25 80,36 80,37  80,38 87,40 88,40  88,40 98,36 98,32  98,28 98,25 98,25" />
        <path
            class="lamp"
            d="M 82,25 83,23 86,22 85,25 86,28 83,27 82,25" />
    </g>
    <g id="icunit" class="unit">
        <path
            class="bumper"
            d="M 100,13 H 102 V 12 H 105 V 17 H 102 V 16 H 99 L 100,13 M 100,37 H 102 V 38 H 105 V 33 H 102 V 34 H 99 L 100,37" />
        <path
            class="lightgrey"
            d="M 63,0 C 63,0 72,1 74,1  76,1 89,4 89,5  89,6 100,5 100,12  100,19 99,13 99,25  99,37 100,31 100,38  100,45 89,44 89,45  89,46 76,49 74,49  72,49 63,50 63,50 Z"
            />
        <path
            class="windowgrey"
            d="M 63,0 L 63,0 C 65,0 98,8 98,14  98,19 98,25 98,25  98,25 98,31 98,36  98,42 65,50 63,50 L 63,50" />
        <path
            class="black-windscreen"
            d="M 98,25 C 98,25 98,22 98,18  98,14 88,10 88,10  87,10 80,12 80,13  80,14 81,25 81,25  81,25 80,36 80,37  80,38 87,40 88,40  88,40 98,36 98,32  98,28 98,25 98,25" />
        <path
            class="lamp"
            d="M 82,25 83,23 86,22 85,25 86,28 83,27 82,25" />
    </g>
    <g id="iceunit" class="unit">
        <path
            class="icebody"
            d="M 150,0 C 250,0 426,35 426,100 426,165 250,200 150,200 Z" />
        <path
            class="lamp"
            d="M 410,86 387,76 384,60 407,72 Z" />
        <path
            class="lamp"
            d="M 410,114 387,124 384,140 407,128 Z" />
        <path
            class="windscreen"
            d="M 290,37 C 301,37 360,55 360,100 360,145 301,163 290,163 291,163 296,120 296,100 296,80 291,37 290,37 Z" />
        <path
            class="cap"
            d="M 290,163 C 291,163 296,120 296,100 296,80 291,37 290,37 290,36 256,31 246,31 206,31 214,65 214,100 214,135 206,169 246,169 256,169 290,164 290,163 Z" />
    </g>
    <marker id="ice-start" viewBox="150 0 426,200" refX="150" refY="100" markerHeight="1" orient="auto-start-reverse">
        <!--<path d="M 0,426 C 0,78 55,0 100,0 C 145,0 200,78 200,426 Z" fill="white" />
        <path d="M 86,16 L 76,39 L 60,42 L 72,19 Z" fill="grey" />
        <path d="M 114,16 L 124,39 L 140,42 L 128,19 Z" fill="grey" />
        <path d="M 37,136 C 37,125 55,66 100,66 C 145,66 163,125 163,136 C 163,135 120,130 100,130 C 80,130 37,135 37,136 Z" fill="lightgrey" />
        <path d="M 163,136 C 163,135 120,130 100,130 C 80,130 37,135 37,136 C 36,136 31,170 31,180 C 31,220 65,212 100,212 C 135,212 169,220 169,180 C 169,170 164,136 163,136 Z" fill="grey" />
        -->
        <g class="train-start">
            <use href="#iceunit" />
        </g>
    </marker>
    <marker id="ice-end" viewBox="150 0 426,200" refX="150" refY="100" markerHeight="1" orient="auto-start-reverse">
        <g class="train-end">
            <use href="#iceunit" />
        </g>    
    </marker>
    <marker id="ic-start" viewBox="63 0 105,50" refX="63" refY="25" markerHeight="1" orient="auto-start-reverse">
        <g class="train-start">
            <use href="#icunit" />
        </g>
    </marker>
    <marker id="ic-end" viewBox="63 0 105,50" refX="63" refY="25" markerHeight="1" orient="auto-start-reverse">
        <g class="train-end">
            <use href="#icunit"/>
        </g>
    </marker>
    <marker id="regio-start" viewBox="65 0 40,50" refX="65" refY="25" markerHeight="1" orient="auto-start-reverse">
        <g class="train-start">
            <use href="#regiounit" />
        </g>
    </marker>
    <marker id="regio-end" viewBox="65 0 40,50" refX="65" refY="25" markerHeight="1" orient="auto-start-reverse">
        <g class="train-end">
            <use href="#regiounit"/>
        </g>
    </marker>
    <marker id="panto" viewBox="0 0 200,200" refX="130" refY="100" markerHeight="1" orient="auto-start-reverse">
        <path
            d="M 200,100 L 200,90 L 90,70 M 200,100 L 200,110 L 90,130 M 113,30 L 110,35 L 110,165 L 113,170 M 83,30 80,35 L 80,165 L 83,170" class="panto" />
        <path 
            d="M 130,100 L 200,100" class="panto" style="stroke-width:20px" />
    </marker>
    <marker id="profile-start" viewBox="149.67 93.60 36.35,37.62" refX="153.69" refY="103.06" markerHeight="2">
        <g class="profileunit">
            <circle r="2.0475183" cy="112.27797" cx="155.81813" />
            <circle cx="168.48003" cy="112.27797" r="2.0475183" />
            <path
                d="M 153.69457,93.60156 C 162.6481,93.60156 174.1649,98.111121 179.37126,102.16052 183.58075,105.43457 186.01959,107.17182 186.01959,108.70862 186.01959,110.72984 181.42589,111.38131 180.87465,111.38131 180.40676,111.38131 181.24215,112.24994 181.24215,112.24994 L 149.67857,112.31138 V 93.60156 H 153.69457"
                />
        </g>
    </marker>
    <marker id="profile-end" viewBox="120 93.60 50,37.62" refX="153.69" refY="103.06" markerHeight="2">
        <g class="profileunit">
            <g transform="scale(-1,1)" transform-origin="153.69457 93.60156">
                <circle r="2.0475183" cy="112.27797" cx="155.81813" />
                <circle cx="168.48003" cy="112.27797" r="2.0475183" />
                <path
                    d="M 153.69457,93.60156 C 162.6481,93.60156 174.1649,98.111121 179.37126,102.16052 183.58075,105.43457 186.01959,107.17182 186.01959,108.70862 186.01959,110.72984 181.42589,111.38131 180.87465,111.38131 180.40676,111.38131 181.24215,112.24994 181.24215,112.24994 L 149.67857,112.31138 V 93.60156 H 153.69457"
                    />            
            </g>
        </g>
    </marker>
    <marker id="profile-hinge" viewBox="25.61 93.60 60,37.62" refX="54.97" refY="103.06" markerHeight="2" markerWidth="4">
        <g class="profileunit" >
            <path
                style="fill:#f2f2f2;stroke:#f2f2f2;stroke-width:0.26458332px;"
                d="M 25.612651,93.60156 H 84.331169 V 112.31138 H 25.612651 Z"
                id="hingebg"
                />
            <circle cx="67.518959" cy="112.27797" r="2.0475183" />
            <circle r="2.0475183" cy="112.27797" cx="80.180855" />
            <circle r="2.0475183" cy="112.27797" cx="29.610632" />
            <circle cx="42.27253" cy="112.27797" r="2.0475183" />
            
            <path
                d="M 84.331169,93.60156 H 56.606828 C 56.205576,93.60156 56.193417,93.601044 56.193417,95.411958 H 54.971912 V 109.17634 H 56.293644 C 56.293644,109.92132 56.267902,110.01156 56.565314,110.01156 H 57.362722 C 57.362722,112.25582 57.255574,112.29516 57.587145,112.29516 L 84.331169,112.31138 Z"
                />
            <g transform="matrix(-1,0,0,1,109.94382,0)">
                <path
                    d="M 84.331169,93.60156 H 56.606828 C 56.205576,93.60156 56.193417,93.601044 56.193417,95.411958 H 54.971912 V 109.17634 H 56.293644 C 56.293644,109.92132 56.267902,110.01156 56.565314,110.01156 H 57.362722 C 57.362722,112.25582 57.255574,112.29516 57.587145,112.29516 L 84.331169,112.31138 Z"
                    />
            </g>
        </g>
    </marker>
</defs>
<rect x="0" y="0" width="100%" height="100%" fill="#f2f2f2"/>

<g id="zoomable">
    <image href="res/concrete_bw.jpg" preserveAspectRatio="xMidYMid slice"  x="0" y="0" width="100%" height="100%" />

    <g id="elements">
        <g id="d" data-from="0 0 noanim-nozoom" data-to="0 1000 noanim-nozoom"></g>

        <g id="articles" transform=" translate(-3068.56 -1726.06) scale(1.31964)">
            <circle cx="9600" cy="5400" r="3000" fill="white"></circle> 
            <image class="srcarticle" transform="rotate(-15)" x="8200" y="2800" width="1500" height="2000" data-from="1 1 noanim" href="res/high/Neue Studie_ Geplanter U-Bahn-Bau in Berlin schadet dem Klima.svg" />
            <image class="srcarticle" transform="rotate(-10)" x="7000" y="5000" width="1500" height="2000" data-from="1 3 noanim" href="res/high/U-Bahn in Berlin als Klimakiller_ Gutachter stellen katastrophale CO2-Bilanz für neue Tunnel auf.svg" />
            <image class="srcarticle" transform="rotate(-5)" x="8700" y="6000" width="1500" height="2000" data-from="1 6 noanim" href="res/high/U-Bahn in Berlin_ Neue Projekte sind Klimakiller - Berliner Morgenpost.svg" />
            <image class="srcarticle" transform="rotate(15)" x="10700" y="4800" width="1500" height="2000" data-from="1 9 noanim" href="res/high/WD-8-002-21-pdf-data.svg" />
            <image class="srcarticle" transform="rotate(10)" x="9700" y="2800" width="1500" height="2000" data-from="1 12 noanim" href="res/high/Studie zur Klimabilanz der U-Bahn_ Mieses Klima im Untergrund - taz.de.svg" />
            <image x="6600" y="2400" width="6000" height="6000" data-from="100 1 noanim" href="res/high/ubahn_circle.png" />
        </g>

        <g id="cite" transform="translate(500 0)">
            <rect fill="white" stroke="none" x="14000" y="4900" width="2000" height="2000" />
            <path class="marker" data-line="marker" data-from="10 2 keepzoom" data-speed="1000" d="M 14950,5405 l 950,-5" />
            <path class="marker" data-line="marker" data-from="10 2 keepzoom" data-speed="1000" d="M 14050,5505 l 700,-5" />
            <path class="marker" data-line="marker" data-from="10 2 keepzoom" data-speed="1000" d="M 14970,5885 l 430,-5" />
            <path class="marker" data-line="marker" data-from="10 2 keepzoom" data-speed="1000" d="M 15250,6430 l 300,-5" />
            <path class="marker" data-line="marker" data-from="10 2 keepzoom" data-speed="1000" d="M 15100,6540 l 150,-5" />
            <text x="14040" y="5040" data-from="10 1" style="font-size:50px">[...]</text>
            <image x="14000" y="5000" width="2000" height="1000" data-from="10 1 noanim" href="res/high/studie_zitat_1.png" />
            <text x="14040" y="6000" data-from="10 1" style="font-size:50px">[...]</text>
            <image x="14000" y="6000" width="2000" height="1000" data-from="10 1 noanim" href="res/high/studie_zitat_2.png" />
            <g data-from="10 1000 noanim-keepzoom"></g>
        </g>

        <g id="geo" transform="translate(-2472500 -1502900)"></g>

        <g id="plan" transform="scale(3) translate(-819900 -503100) ">
            <path data-from="50 1 noanim-keepzoom" data-line="Ringbahn" data-speed="1000" data-stops="Gesundbrunnen SchönhauserAllee h_FrankfurterAllee_SchönhauserAllee  FrankfurterAllee Ostkreuz Neukölln Hermannstr Tempelhof Südkreuz InnsbruckerPlatz Bundesplatz HeidelbergerPlatz Westkreuz Kaiserdamm Jungfernheide Westhafen Wedding +0 Gesundbrunnen" />

            <path data-from="50 1" data-line="U1" data-speed="1000" data-stops="Uhlandstr Kurfürstendamm Nollendorfplatz Möckernbrücke HalleschesTor KottbusserTor WarschauerStr" />
            <text data-line="U1" data-from="50 1">U1</text>
            <path data-from="50 1" data-line="U2" data-speed="1000" data-stops="Ruhleben Kaiserdamm Bismarckstr ZoologischerGarten - Nollendorfplatz + PotsdamerPlatz Stadtmitte Alexanderplatz SchönhauserAllee Pankow" />
            <text data-line="U2" data-from="50 1">U2</text>
            <path data-from="50 1" data-line="U3" data-speed="1000" data-stops="KrummeLanke HeidelbergerPlatz FehrbellinerPlatz Spichernstr Nollendorfplatz Möckernbrücke HalleschesTor KottbusserTor WarschauerStr" />
            <text data-line="U3" data-from="50 1">U3</text>
            <path data-from="50 1" data-line="U4" data-speed="1000" data-stops="InnsbruckerPlatz BayerischerPlatz Nollendorfplatz" />
            <text data-line="U4" data-from="50 1">U4</text>
            <path data-from="50 1" data-line="U5" data-speed="1000" data-stops="Hauptbahnhof UnterDenLinden Alexanderplatz FrankfurterAllee Lichtenberg Wuhletal Hönow" />
            <text data-line="U5" data-from="50 1">U5</text>
            <path data-from="50 1" data-line="U6" data-speed="1000" data-stops="AltTegel KurtSchumacherPlatz Leopoldplatz Wedding Friedrichstr UnterDenLinden Stadtmitte HalleschesTor Mehringdamm Tempelhof AltMariendorf" />
            <text data-line="U6" data-from="50 1">U6</text>
            <path data-from="50 1" data-line="U7" data-speed="1000" data-stops="RathausSpandau Jungfernheide Bismarckstr WilmersdorferStr FehrbellinerPlatz BerlinerStr BayerischerPlatz Yorckstr +2 h_Möckernbrücke_Yorckstr Möckernbrücke Mehringdamm Hermannplatz Neukölln Rudow" />
            <text data-line="U7" data-from="50 1">U7</text>
            <path data-from="50 1" data-line="U8" data-speed="1000" data-stops="Wittenau KarlBonhoefferNervenklinik OsloerStr Gesundbrunnen Alexanderplatz Jannowitzbrücke KottbusserTor Hermannplatz Hermannstr" />
            <text data-line="U8" data-from="50 1">U8</text>
            <path data-from="50 1" data-line="U9" data-speed="1000" data-stops="OsloerStr Leopoldplatz Westhafen ZoologischerGarten Kurfürstendamm Spichernstr BerlinerStr Bundesplatz RathausSteglitz" />
            <text data-line="U9" data-from="50 1">U9</text>
            

            
            <g data-from="50 10 noanim-keepzoom"></g>

            <!-- Extensions -->
            <!--<path data-from="50 1" data-line="U1" data-stops="WarschauerStr Ostkreuz" />
            <path data-from="50 1" data-line="U1" data-stops="Uhlandstraße Westkreuz" />-->
            <path data-from="51 1" data-line="U9" data-stops="OsloerStr Pankow" />
            <path data-from="51 4" data-line="U7" data-stops="Rudow FlughafenBER" />
            <path data-from="51 9" data-line="U3" data-stops="KrummeLanke Mexikoplatz" />
            <path data-from="51 12" data-line="U8" data-stops="Wittenau MärkischesViertel" />
            <path data-from="51 15" data-line="U6" data-stops="KurtSchumacherPlatz TegelUTR" />


            <rect data-station="h_FrankfurterAllee_SchönhauserAllee" data-dir="nw" class="helper" data-lon-lat="13.45 52.54" />
            <rect data-station="Südkreuz" data-lon-lat="13.364444 52.475556" />
            <rect data-station="Ostkreuz" data-lon-lat="13.468889 52.503056" />
            <rect data-station="Westkreuz" data-lon-lat="13.283889 52.501111" />
            <rect data-station="Mexikoplatz" data-lon-lat="13.2317866 52.4371956" />
            <rect data-station="KurtSchumacherPlatz" data-dir="n" data-lon-lat="13.326572 52.563556" />
            <rect data-station="TegelUTR" data-lon-lat="13.2856972 52.5515199" />
            <rect data-station="FlughafenBER" data-lon-lat="13.5097100 52.3645333" />
            <rect data-station="MärkischesViertel" data-label-dir="s" data-lon-lat="13.3547678 52.5966870" />
            
            <rect data-station="Uhlandstr" data-dir="nw" data-lon-lat="13.325556 52.5025" />
            <rect data-station="Kurfürstendamm" data-lon-lat="13.331389 52.503889" />
            <rect data-station="Nollendorfplatz" data-lon-lat="13.353903 52.499621" />
            <rect data-station="Möckernbrücke" data-dir="ne" data-lon-lat="13.382922 52.499087" />
            <rect data-station="HalleschesTor" data-lon-lat="13.391111 52.497778" />
            <rect data-station="KottbusserTor" data-dir="nw" data-lon-lat="13.418056 52.499167" />
            <rect data-station="WarschauerStr" data-lon-lat="13.450305 52.506223" />
            <rect data-station="Ruhleben" data-lon-lat="13.241389 52.525556" />
            <rect data-station="Kaiserdamm" data-lon-lat="13.282222 52.51" />
            <rect data-station="Bismarckstr" data-lon-lat="13.304722 52.511389" />
            <rect data-station="ZoologischerGarten" data-lon-lat="13.3325 52.507222" />
            <rect data-station="PotsdamerPlatz" data-lon-lat="13.375833 52.509444" />
            <rect data-station="Stadtmitte" data-lon-lat="13.389444 52.512222" />
            <rect data-station="Alexanderplatz" data-lon-lat="13.411944 52.521389" />
            <rect data-station="SchönhauserAllee" data-lon-lat="13.416111 52.549167" />
            <rect data-station="Pankow" data-dir="nw" data-lon-lat="13.411111 52.566667" />
            <rect data-station="KrummeLanke" data-dir="nw" data-lon-lat="13.241369 52.443246" />
            <rect data-station="HeidelbergerPlatz" data-dir="nw" data-lon-lat="13.311944 52.48" />
            <rect data-station="FehrbellinerPlatz" data-dir="nw" data-lon-lat="13.314378 52.490352" />
            <rect data-station="Spichernstr" data-lon-lat="13.330686 52.496434" />
            <rect data-station="InnsbruckerPlatz" data-lon-lat="13.343889 52.478611" />
            <rect data-station="BayerischerPlatz" data-dir="nw" data-lon-lat="13.34031 52.488428" />
            <rect data-station="Hauptbahnhof" data-dir="nw" data-lon-lat="13.369444 52.525" />
            <rect data-station="UnterDenLinden" data-lon-lat="13.388895 52.516967" />
            <rect data-station="FrankfurterAllee" data-lon-lat="13.474722 52.515" />
            <rect data-station="Hönow" data-dir="nw" data-lon-lat="13.633889 52.538333" />
            <rect data-station="AltTegel" data-dir="ne" data-lon-lat="13.283611 52.589444" />
            <rect data-station="Wedding" data-dir="n" data-lon-lat="13.366111 52.5425" />
            <rect data-station="Leopoldplatz" data-dir="n" data-lon-lat="13.359118 52.546452" />
            <rect data-station="Friedrichstr" data-dir="nw" data-lon-lat="13.386944 52.520278" />
            <rect data-station="Mehringdamm" data-lon-lat="13.388611 52.494444" />            
            <rect data-station="Tempelhof" data-lon-lat="13.38535 52.470756" />
            <rect data-station="AltMariendorf" data-lon-lat="13.3877 52.4391" />
            <rect data-station="RathausSpandau" data-lon-lat="13.200278 52.535" />            
            <rect data-station="Jungfernheide" data-dir="nw" data-lon-lat="13.300597 52.530504" />
            <rect data-station="WilmersdorferStr" data-dir="nw" data-lon-lat="13.306667 52.506667" />
            <rect data-station="BerlinerStr" data-dir="nw" data-lon-lat="13.33092 52.48722" />
            <rect data-station="Yorckstr"  data-dir="nw" data-lon-lat="13.370833 52.493056" />
            <rect data-station="Neukölln" data-dir="nw" data-lon-lat="13.442222 52.469444" />
            <rect data-station="Hermannplatz" data-dir="nw" data-lon-lat="13.424444 52.486389" />
            <rect data-station="Rudow" data-dir="nw" data-lon-lat="13.495278 52.416111" />            
            <rect data-station="Wittenau" data-dir="ne" data-lon-lat="13.336667 52.595833" />
            <rect data-station="OsloerStr" data-dir="nw" data-lon-lat="13.373253 52.557001" />
            <rect data-station="Gesundbrunnen" data-lon-lat="13.389444 52.548611" />
            <rect data-station="Jannowitzbrücke" data-lon-lat="13.418389 52.514638" />
            <rect data-station="Hermannstr" data-lon-lat="13.431111 52.4675" />
            <rect data-station="Westhafen" data-dir="nw" data-lon-lat="13.343944 52.536256" />
            <rect data-station="Bundesplatz" data-lon-lat="13.329167 52.477639" />
            <rect data-station="RathausSteglitz" data-lon-lat="13.321588 52.456219" />

            <rect data-station="Lichtenberg" data-lon-lat="13.496389 52.510556" />
            <rect data-station="Wuhletal" data-dir="nw" data-lon-lat="13.575175 52.512591" />
            <rect data-station="KarlBonhoefferNervenklinik" data-dir="ne" data-lon-lat="13.331265 52.578384" />
            
            <rect data-station="h_Möckernbrücke_Yorckstr" class="helper" data-dir="n" data-lon-lat="13.375 52.499621" />
            

            <!--
            <text data-station="Uhlandstr">Uhlandstr</text>
            <text data-station="Kurfürstendamm">Kurfürstendamm</text>
            <text data-station="Nollendorfplatz">Nollendorfplatz</text>
            <text data-station="Möckernbrücke">Möckernbrücke</text>
            <text data-station="HalleschesTor">HalleschesTor</text>
            <text data-station="KottbusserTor">KottbusserTor</text>
            <text data-station="WarschauerStr">WarschauerStr</text>
            <text data-station="Ruhleben">Ruhleben</text>
            <text data-station="Kaiserdamm">Kaiserdamm</text>
            <text data-station="Bismarckstr">Bismarckstr</text>
            <text data-station="ZoologischerGarten">ZoologischerGarten</text>
            <text data-station="PotsdamerPlatz">PotsdamerPlatz</text>
            <text data-station="Stadtmitte">Stadtmitte</text>
            <text data-station="Alexanderplatz">Alexanderplatz</text>
            <text data-station="SchönhauserAllee">SchönhauserAllee</text>
            <text data-station="HeidelbergerPlatz">HeidelbergerPlatz</text>
            <text data-station="FehrbellinerPlatz">FehrbellinerPlatz</text>
            <text data-station="Spichernstr">Spichernstr</text>
            <text data-station="InnsbruckerPlatz">InnsbruckerPlatz</text>
            <text data-station="BayerischerPlatz">BayerischerPlatz</text>
            <text data-station="Hauptbahnhof">Hauptbahnhof</text>
            <text data-station="UnterDenLinden">UnterDenLinden</text>
            <text data-station="FrankfurterAllee">FrankfurterAllee</text>
            <text data-station="Hönow">Hönow</text>
            <text data-station="AltTegel">AltTegel</text>
            <text data-station="Wedding">Wedding</text>
            <text data-station="Leopoldplatz">Leopoldplatz</text>
            <text data-station="Friedrichstr">Friedrichstr</text>
            <text data-station="Mehringdamm">Mehringdamm</text>            
            <text data-station="Tempelhof">Tempelhof</text>
            <text data-station="AltMariendorf">AltMariendorf</text>
            <text data-station="RathausSpandau">RathausSpandau</text>            
            <text data-station="Jungfernheide">Jungfernheide</text>
            <text data-station="WilmersdorferStr">WilmersdorferStr</text>
            <text data-station="BerlinerStr">BerlinerStr</text>
            <text data-station="Yorckstr">Yorckstr</text>
            <text data-station="Neukölln">Neukölln</text>
            <text data-station="Hermannplatz">Hermannplatz</text>
            <text data-station="Gesundbrunnen">Gesundbrunnen</text>
            <text data-station="Jannowitzbrücke">Jannowitzbrücke</text>
            <text data-station="Hermannstr">Hermannstr</text>
            <text data-station="Westhafen">Westhafen</text>
            <text data-station="Bundesplatz">Bundesplatz</text>
            <text data-station="RathausSteglitz">RathausSteglitz</text>
            <text data-station="Lichtenberg">Lichtenberg</text>
            <text data-station="Wuhletal">Wuhletal</text>
            <text data-station="KarlBonhoefferNervenklinik">KarlBonhoefferNervenklinik</text>
            <text data-station="Ostkreuz">Ostkreuz</text>
            <text data-station="Westkreuz">Westkreuz</text>
            -->


            <text data-from="51 0 keepzoom" data-station="KrummeLanke">Krumme Lanke</text>
            <text data-from="51 0 keepzoom" data-station="KurtSchumacherPlatz" data-dir="n">Kurt-Schumacher-Platz</text>
            <text data-from="51 0 keepzoom" data-station="Rudow">Rudow</text>            
            <text data-from="51 0 keepzoom" data-station="Wittenau">Wittenau</text>
            <text data-from="51 0 keepzoom" data-station="OsloerStr">Osloer Straße</text>
            
            <text data-from="51 0 keepzoom" data-station="Mexikoplatz">Mexikoplatz</text>
            <text data-from="51 0 keepzoom" data-station="TegelUTR">Flugfeld Tegel</text>
            <text data-from="51 0 keepzoom" data-station="FlughafenBER">Flughafen BER</text>
            <text data-from="51 0 keepzoom" data-station="MärkischesViertel">Märkisches Viertel</text>
            <text data-from="51 0 keepzoom" data-station="Pankow">Pankow</text>

        </g>

        <g id="tt" transform="translate(14000, 8000) scale(5)" data-from="25 0 noanim-keepzoom" class="toplevel">
            <g data-from="25 0 noanim-keepzoom">
                <rect x="-50" y="-100" width="500" height="700" data-from="25 1 noanim" data-to="25 40 noanim" class="helper" />
                <text x="200" y="-30" class="heading" data-from="25 0 noanim-keepzoom">Jahre bis zur Amortisation des CO₂-Ausstoßes</text>
                <text x="200" y="0" data-from="25 0 noanim-keepzoom" style="text-anchor: middle;font-size:12px;">nach der Studie "Die Klimabilanz Berliner U-Bahn und Straßenbahnplanungen"</text>

                <g transform="translate(0 0)">
                    <text x="180" y="50" data-from="25 1 keepzoom">Beton: kgCO₂ pro m³ Stahlbeton</text>
                    <line x1="200" y1="50" x2="200" y2="50" id="concrete_kgCO2pm3concrete" class="secondary" />
                    <text class="path-inset" x="210" y="50" id="concrete_kgCO2pm3concrete_label"></text>

                    <text x="180" y="75" data-from="25 1 keepzoom">Stahl: kgCO₂ pro m³ Stahlbeton</text>
                    <line x1="200" y1="75" x2="200" y2="75" id="rebar_steel_kgCO2pm3concrete" class="secondary" />
                    <text class="path-inset" x="210" y="75" id="rebar_steel_kgCO2pm3concrete_label"></text>

                    <text x="180" y="100" data-from="25 1 keepzoom">tCO₂ pro km U-Bahn-Tunnel</text>
                    <line x1="200" y1="100" x2="200" y2="100" id="total_tCO2pKm" class="secondary" />
                    <text class="path-inset" x="210" y="100" id="total_tCO2pKm_label"></text>
                </g>

                <g transform="translate(-412.5 300)">
                    <text x="212.5" y="50" class="subheading" data-from="25 1 keepzoom">U9 Nord nach Pankow</text>

                    <line x1="200" y1="25" x2="200" y2="25" id="u9north_daily_passengers" class="secondary" />
                    <text x="180" y="0" class="label secondary" id="u9north_daily_passengers_label"></text>
                    <text x="180" y="15" data-from="25 1 keepzoom">Fahrgäste</text>

                    <line x1="225" y1="25" x2="225" y2="25" id="u9north_amortisation" />
                    <text x="245" y="0" class="right label" id="u9north_amortisation_label"></text>
                    <text x="245" y="15" class="right" data-from="25 1 keepzoom">Jahre</text>
                </g>

                <g transform="translate(-212.5 300)">
                    <text x="212.5" y="50" class="subheading" data-from="25 1 keepzoom">U7 Süd zum Flughafen BER</text>

                    <line x1="200" y1="25" x2="200" y2="25" id="u7south_daily_passengers" class="secondary" />
                    <text x="180" y="0" class="label secondary" id="u7south_daily_passengers_label"></text>
                    <text x="180" y="15" data-from="25 1 keepzoom">Fahrgäste</text>

                    <line x1="225" y1="25" x2="225" y2="25" id="u7south_amortisation" />
                    <text x="245" y="0" class="right label" id="u7south_amortisation_label"></text>
                    <text x="245" y="15" class="right" data-from="25 1 keepzoom">Jahre</text>
                </g>

                <g transform="translate(-12.5 300)">
                    <text x="212.5" y="50" class="subheading" data-from="25 1 keepzoom">U3 Süd zum Mexikoplatz</text>

                    <line x1="200" y1="25" x2="200" y2="25" id="u3south_daily_passengers" class="secondary" />
                    <text x="180" y="0" class="label secondary" id="u3south_daily_passengers_label"></text>
                    <text x="180" y="15" data-from="25 1 keepzoom">Fahrgäste</text>

                    <line x1="225" y1="25" x2="225" y2="25" id="u3south_amortisation" />
                    <text x="245" y="0" class="right label" id="u3south_amortisation_label"></text>
                    <text x="245" y="15" class="right" data-from="25 1 keepzoom">Jahre</text>
                </g>

                <g transform="translate(187.5 300)">
                    <text x="212.5" y="50" class="subheading" data-from="25 1 keepzoom">U8 Nord zum Märkischen Viertel</text>

                    <line x1="200" y1="25" x2="200" y2="25" id="u8north_daily_passengers" class="secondary" />
                    <text x="180" y="0" class="label secondary" id="u8north_daily_passengers_label"></text>
                    <text x="180" y="15" data-from="25 1 keepzoom">Fahrgäste</text>

                    <line x1="225" y1="25" x2="225" y2="25" id="u8north_amortisation" />
                    <text x="245" y="0" class="right label" id="u8north_amortisation_label"></text>
                    <text x="245" y="15" class="right" data-from="25 1 keepzoom">Jahre</text>
                </g>

                <g transform="translate(387.5 300)">
                    <text x="212.5" y="50" class="subheading" data-from="25 1 keepzoom">U6 Nord zum Flugfeld Tegel</text>

                    <line x1="200" y1="25" x2="200" y2="25" id="u6north_daily_passengers" class="secondary" />
                    <text x="180" y="0" class="label secondary" id="u6north_daily_passengers_label"></text>
                    <text x="180" y="15" data-from="25 1 keepzoom">Fahrgäste</text>

                    <line x1="225" y1="25" x2="225" y2="25" id="u6north_amortisation" />
                    <text x="245" y="0" class="right label" id="u6north_amortisation_label"></text>
                    <text x="245" y="15" class="right" data-from="25 1 keepzoom">Jahre</text>
                </g>


             


                <g data-from="25 0 noanim-keepzoom" class="focusable" onfocus="updateBars('original')"></g>
                <g data-from="25 10 noanim-keepzoom" class="focusable" onfocus="updateBars('corrected')"></g>
                <g data-from="25 10000"></g>


        

            </g>
            
        </g>

    </g>

</g>

    <script xlink:href="../../dist/network-animator.js" />
    <script xlink:href="u-bahn-berlin.js" />
</svg>